<svg width="64" height="64" viewBox="0 0 64 64" fill="none" xmlns="http://www.w3.org/2000/svg">
<path fill-rule="evenodd" clip-rule="evenodd" d="M31.9997 3.33325C30.3863 3.33325 28.901 3.73325 27.277 4.40525C25.7063 5.05592 23.8823 6.01325 21.613 7.20525L16.0983 10.0986C13.3117 11.5599 11.085 12.7306 9.35967 13.8799C7.57834 15.0719 6.20234 16.3253 5.20234 18.0239C4.20501 19.7173 3.75701 21.5519 3.54101 23.7359C3.33301 25.8559 3.33301 28.4613 3.33301 31.7412V32.2586C3.33301 35.5386 3.33301 38.1439 3.54101 40.2639C3.75701 42.4506 4.20767 44.2826 5.20234 45.9759C6.20234 47.6746 7.57567 48.9279 9.36234 50.1199C11.0823 51.2692 13.3117 52.4399 16.0983 53.9012L21.613 56.7946C23.8823 57.9866 25.7063 58.9439 27.277 59.5946C28.9037 60.2666 30.3863 60.6666 31.9997 60.6666C33.613 60.6666 35.0983 60.2666 36.7223 59.5946C38.293 58.9439 40.117 57.9866 42.3863 56.7946L47.901 53.9039C50.6877 52.4399 52.9143 51.2692 54.637 50.1199C56.4237 48.9279 57.797 47.6746 58.797 45.9759C59.7943 44.2826 60.2423 42.4479 60.4583 40.2639C60.6663 38.1439 60.6663 35.5386 60.6663 32.2612V31.7386C60.6663 28.4613 60.6663 25.8559 60.4583 23.7359C60.2423 21.5493 59.7917 19.7173 58.797 18.0239C57.797 16.3253 56.4237 15.0719 54.637 13.8799C52.917 12.7306 50.6877 11.5599 47.901 10.0986L42.3863 7.20525C40.117 6.01325 38.293 5.05592 36.7223 4.40525C35.0957 3.73325 33.613 3.33325 31.9997 3.33325ZM23.3863 10.7893C25.7597 9.54392 27.4237 8.67458 28.805 8.10392C30.149 7.54659 31.0957 7.33325 31.9997 7.33325C32.9063 7.33325 33.8503 7.54659 35.1943 8.10392C36.5757 8.67458 38.237 9.54392 40.6103 10.7893L45.9437 13.5893C48.8503 15.1119 50.8903 16.1866 52.4183 17.2053C53.1703 17.7093 53.7597 18.1759 54.2397 18.6453L45.357 23.0852L22.6903 11.1546L23.3863 10.7893ZM18.5197 13.3439L18.0557 13.5893C15.149 15.1119 13.109 16.1866 11.5837 17.2053C10.9333 17.6279 10.3236 18.1099 9.76234 18.6453L31.9997 29.7652L40.9517 25.2853L19.069 13.7706C18.8638 13.6594 18.6782 13.5152 18.5197 13.3439ZM7.83434 22.1519C7.70101 22.7226 7.59701 23.3706 7.52234 24.1252C7.33567 26.0293 7.33301 28.4373 7.33301 31.8426V32.1546C7.33301 35.5626 7.33301 37.9706 7.52234 39.8719C7.70634 41.7306 8.05567 42.9332 8.65034 43.9466C9.24234 44.9519 10.0983 45.8026 11.5837 46.7946C13.109 47.8133 15.149 48.8879 18.0557 50.4106L23.389 53.2106C25.7623 54.4559 27.4237 55.3252 28.805 55.8959C29.2388 56.0755 29.637 56.2221 29.9997 56.3359V33.2346L7.83434 22.1519ZM33.9997 56.3332C34.3623 56.2212 34.7606 56.0755 35.1943 55.8959C36.5757 55.3252 38.237 54.4559 40.6103 53.2106L45.9437 50.4106C48.8503 48.8852 50.8903 47.8133 52.4183 46.7946C53.901 45.8026 54.757 44.9519 55.3517 43.9466C55.9463 42.9332 56.293 41.7332 56.477 39.8719C56.6637 37.9706 56.6663 35.5626 56.6663 32.1572V31.8453C56.6663 28.4373 56.6663 26.0293 56.477 24.1279C56.4142 23.4643 56.31 22.8052 56.165 22.1546L47.333 26.5679V34.6666C47.333 35.197 47.1223 35.7057 46.7472 36.0808C46.3721 36.4559 45.8634 36.6666 45.333 36.6666C44.8026 36.6666 44.2939 36.4559 43.9188 36.0808C43.5437 35.7057 43.333 35.197 43.333 34.6666V28.5706L33.9997 33.2372V56.3332Z" fill="black"/>
</svg>
