<svg width="19" height="20" viewBox="0 0 19 20" fill="none" xmlns="http://www.w3.org/2000/svg">
<g clip-path="url(#clip0_773_1809)">
<path d="M0 13.6187V20H18.1323V13.6187H0ZM17.3541 19.2218H0.77821V14.3969H1.55642V15.5642H2.33463V14.3191H3.11284V16.7315H3.89105V14.3191H5.05837V15.5642H5.83658V14.3191H6.77043V16.7315H7.54864V14.3191H8.63813V15.5642H9.41634V14.3191H10.5058V16.7315H11.284V14.3191H12.2179V15.5642H12.9961V14.3191H14.1634V16.7315H14.9416V14.3191H15.7977V15.5642H16.5759V14.3191H17.3541V19.2218ZM15.0195 2.02335H10.1167V0H8.01556V2.02335H3.11284L1.08949 12.3735H17.1206L15.0195 2.02335ZM8.79377 0.77821H9.33852V2.02335H8.79377V0.77821ZM3.73541 2.80156H14.3969L16.1089 11.5953H2.02335L3.73541 2.80156Z" fill="black"/>
<path d="M8.56053 5.36966H7.78232L6.69283 6.69261C6.53718 6.77043 6.45936 6.92608 6.30372 7.08172V3.65759H5.68115V9.10506H6.38154V7.70428L6.69283 7.31518L8.01578 9.10506H8.87181L7.15975 6.92607L8.56053 5.36966ZM11.829 5.9144C11.6734 5.60312 11.2843 5.29183 10.6617 5.29183C9.80567 5.29183 8.94963 5.99222 8.94963 7.23736C8.94963 8.24903 9.65002 9.02724 10.5061 9.02724C11.0508 9.02724 11.5177 8.71596 11.6734 8.40467V8.79378C11.6734 9.72763 11.1286 10.1167 10.5061 10.1167C10.0391 10.1167 9.65002 9.96109 9.41656 9.80545L9.33874 10.428C9.65002 10.6615 10.1169 10.7393 10.5839 10.7393C11.0508 10.7393 11.5955 10.6615 11.9068 10.2724C12.2959 9.96109 12.4516 9.41635 12.4516 8.56032V5.36966H11.829V5.9144ZM11.7512 7.47082C11.7512 7.54864 11.7512 7.70429 11.6734 7.85993C11.5177 8.32685 11.1286 8.56032 10.7395 8.56032C10.0391 8.56032 9.65002 7.93775 9.65002 7.23736C9.65002 6.38133 10.1169 5.83658 10.7395 5.83658C11.2064 5.83658 11.5955 6.14786 11.6734 6.53697V7.47082H11.7512Z" fill="black"/>
</g>
<defs>
<clipPath id="clip0_773_1809">
<rect width="18.1323" height="20" fill="white"/>
</clipPath>
</defs>
</svg>
