<svg width="24" height="18" viewBox="0 0 24 18" fill="none" xmlns="http://www.w3.org/2000/svg">
<path d="M19.5832 14.9583C21.1259 14.9583 21.8181 14.9583 22.3078 14.4307C22.3295 14.4076 22.35 14.3842 22.3695 14.3603C22.8354 13.8046 22.8354 12.9303 22.8354 11.1797C22.8354 9.85258 22.8354 9.18958 22.5754 8.6295C22.3035 8.0445 21.8138 7.67942 20.7835 6.93408C19.7598 6.19308 19.0329 5.36108 18.3395 4.21492C17.3515 2.57908 16.8565 1.76117 16.1155 1.31808C15.3745 0.875 14.5002 0.875 12.7517 0.875H11.9934M8.74121 14.9583H15.2466" stroke="black" stroke-width="1.5" stroke-linecap="round" stroke-linejoin="round"/>
<path d="M14.1625 0.875L14.9707 4.645C15.4365 6.81492 15.5124 8.45833 17.991 8.45833H22.294M22.8357 11.7083H21.7524M11.9948 0.875V14.9583M17.4158 17.125C17.9906 17.1251 18.5419 16.897 18.9484 16.4906C19.3549 16.0843 19.5834 15.5331 19.5835 14.9583C19.5837 14.3836 19.3555 13.8323 18.9492 13.4257C18.5428 13.0192 17.9916 12.7907 17.4169 12.7906C16.8421 12.7906 16.2909 13.0189 15.8844 13.4253C15.478 13.8318 15.2497 14.383 15.2497 14.9578C15.2497 15.5326 15.478 16.0838 15.8844 16.4902C16.2909 16.8967 16.841 17.125 17.4158 17.125ZM6.57487 17.125C6.85947 17.1251 7.1413 17.0691 7.40427 16.9602C7.66723 16.8514 7.90618 16.6918 8.10748 16.4906C8.30877 16.2894 8.46846 16.0506 8.57744 15.7876C8.68642 15.5247 8.74255 15.2429 8.74262 14.9583C8.74269 14.6737 8.6867 14.3919 8.57786 14.1289C8.46901 13.866 8.30944 13.627 8.10824 13.4257C7.90705 13.2244 7.66818 13.0647 7.40527 12.9558C7.14236 12.8468 6.86055 12.7907 6.57595 12.7906C6.00117 12.7904 5.44988 13.0186 5.04335 13.425C4.63681 13.8313 4.40835 14.3825 4.4082 14.9573C4.40806 15.532 4.63625 16.0833 5.04258 16.4899C5.44891 16.8964 6.00009 17.1249 6.57487 17.125Z" stroke="black" stroke-width="1.5" stroke-linecap="round" stroke-linejoin="round"/>
<path d="M11.9892 8.46155H1.16455V13.564C1.16455 13.9703 1.9153 14.448 2.58913 14.7665C2.82422 14.8781 3.08205 14.929 3.34205 14.9355L4.4048 14.9659" stroke="black" stroke-width="1.5" stroke-linecap="round" stroke-linejoin="round"/>
</svg>
